# xmcd CD database file
#
# Track frame offsets:
#	150
#	15795
#	32490
#	49590
#	64320
#	79175
#	93012
#	107227
#	122845
#	137620
#	153202
#	166834
#
# Disc length: 2459 seconds
#
# Revision: 3
# Processed by: cddbd v1.5.1PL0 Copyright (c) Steve Scherf et al.
# Submitted via: CDex 1.51
#
DISCID=8509990c
DTITLE=Various Artist - Davon träume ich
DYEAR=1900
DGENRE=Schlager
TTITLE0=Leonard - Davon träume ich
TTITLE1=Carrière - Hey Amore
TTITLE2=Relax - Weil Du so wie Du bist
TTITLE3=White Stars - Aber diesmal mit Herz
TTITLE4=Wind - Ich sehn mich nach Dir
TTITLE5=Pepe Solera mit Verena and Carmen - Hallo Sonnenschein
TTITLE6=Leonard - Alles nur für Dich
TTITLE7=Albin Berger - Ich habe nicht das Herz
TTITLE8=Brunner and Brunner - Cabriolet
TTITLE9=Markus Rüger - Lass uns zwei zusammen träumen
TTITLE10=Schachner - Komm und lieb mich heute nacht
TTITLE11=Ginp D'Oro - Janina
EXTD=
EXTT0=
EXTT1=
EXTT2=
EXTT3=
EXTT4=
EXTT5=
EXTT6=
EXTT7=
EXTT8=
EXTT9=
EXTT10=
EXTT11=
PLAYORDER=
